<?xml version="1.0" encoding="UTF-8"?><!DOCTYPE score-partwise PUBLIC "-//Recordare//DTD MusicXML 3.1 Partwise//EN" "http://www.musicxml.org/dtds/partwise.dtd"><score-partwise version="3.1"><identification><encoding><software>MuseScore 3.6.2</software><encoding-date>2025-04-12</encoding-date><supports element="accidental" type="yes"/><supports element="beam" type="yes"/><supports element="print" attribute="new-page" type="yes" value="yes"/><supports element="print" attribute="new-system" type="yes" value="yes"/><supports element="stem" type="yes"/></encoding></identification><defaults><scaling><millimeters>6.99911</millimeters><tenths>40</tenths></scaling><page-layout><page-height>1697.36</page-height><page-width>1200.15</page-width><page-margins type="even"><left-margin>85.7252</left-margin><right-margin>85.7252</right-margin><top-margin>85.7252</top-margin><bottom-margin>85.7252</bottom-margin></page-margins><page-margins type="odd"><left-margin>85.7252</left-margin><right-margin>85.7252</right-margin><top-margin>85.7252</top-margin><bottom-margin>85.7252</bottom-margin></page-margins></page-layout><word-font font-family="Edwin" font-size="10"/><lyric-font font-family="Edwin" font-size="10"/></defaults><part-list><score-part id="P1"><part-name>Piano</part-name><part-abbreviation>Pno.</part-abbreviation><score-instrument id="P1-I1"><instrument-name>Piano</instrument-name></score-instrument><midi-device id="P1-I1" port="1"></midi-device><midi-instrument id="P1-I1"><midi-channel>1</midi-channel><midi-program>1</midi-program><volume>78.7402</volume><pan>0</pan></midi-instrument></score-part></part-list><part id="P1"><measure number="1" width="258.58"><print><system-layout><system-margins><left-margin>50.00</left-margin><right-margin>0.00</right-margin></system-margins><top-system-distance>70.00</top-system-distance></system-layout></print><attributes><divisions>4</divisions><key><fifths>2</fifths></key><time><beats>6</beats><beat-type>8</beat-type></time><clef><sign>G</sign><line>2</line></clef></attributes><direction placement="above"><direction-type><metronome parentheses="no" default-x="-35.72" default-y="0.32" relative-y="20.00"><beat-unit>quarter</beat-unit><per-minute>80</per-minute></metronome></direction-type><sound tempo="80"/></direction><note default-x="108.47" default-y="-30.00" dynamics="100.00"><pitch><step>G</step><octave>4</octave></pitch><duration>1</duration><voice>1</voice><type>16th</type><stem>up</stem><beam number="1">begin</beam><beam number="2">begin</beam><voice>1</voice>
<lyric>
<syllabic>single</syllabic>
<text>and</text>
</lyric>
</note><note default-x="123.47" default-y="-25.00" dynamics="100.00"><pitch><step>A</step><octave>4</octave></pitch><duration>1</duration><voice>1</voice><type>16th</type><stem>up</stem><beam number="1">continue</beam><beam number="2">end</beam><voice>1</voice>
<lyric>
<syllabic>single</syllabic>
<text>which</text>
</lyric>
</note><note default-x="138.47" default-y="-20.00" dynamics="100.00"><pitch><step>B</step><octave>4</octave></pitch><duration>2</duration><voice>1</voice><type>eighth</type><stem>up</stem><beam number="1">continue</beam><voice>1</voice>
<lyric>
<syllabic>single</syllabic>
<text>one</text>
</lyric>
</note><note default-x="161.05" default-y="-40.00" dynamics="100.00"><pitch><step>E</step><octave>4</octave></pitch><duration>2</duration><voice>1</voice><type>eighth</type><stem>up</stem><beam number="1">end</beam><voice>1</voice>
<lyric>
<syllabic>single</syllabic>
<text>are</text>
</lyric>
</note><note default-x="183.63" default-y="-40.00" dynamics="100.00"><pitch><step>E</step><octave>4</octave></pitch><duration>2</duration><voice>1</voice><type>eighth</type><stem>up</stem><beam number="1">begin</beam><voice>1</voice>
<lyric>
<syllabic>single</syllabic>
<text>ye</text>
</lyric>
</note><note default-x="206.21" default-y="-10.00" dynamics="100.00"><pitch><step>D</step><octave>5</octave></pitch><duration>2</duration><voice>1</voice><type>eighth</type><stem>up</stem><beam number="1">continue</beam><voice>1</voice>
<lyric>
<syllabic>single</syllabic>
<text>singing</text>
</lyric>
</note><note default-x="228.79" default-y="-40.00" dynamics="100.00"><pitch><step>E</step><octave>4</octave></pitch><duration>2</duration><voice>1</voice><type>eighth</type><stem>up</stem><beam number="1">end</beam><voice>1</voice>
<lyric>
<syllabic>single</syllabic>
<text>now</text>
</lyric>
</note></measure><measure number="2" width="145.86"><note default-x="13.00" default-y="-40.00" dynamics="100.00"><pitch><step>E</step><octave>4</octave></pitch><duration>2</duration><voice>1</voice><type>eighth</type><stem>up</stem><beam number="1">begin</beam><voice>1</voice>
<lyric>
<syllabic>single</syllabic>
<text>are</text>
</lyric>
</note><note default-x="33.61" default-y="-20.00" dynamics="100.00"><pitch><step>B</step><octave>4</octave></pitch><duration>2</duration><voice>1</voice><type>eighth</type><stem>up</stem><beam number="1">continue</beam><voice>1</voice>
<lyric>
<syllabic>single</syllabic>
<text>ye</text>
</lyric>
</note><note default-x="54.23" default-y="-25.00" dynamics="100.00"><pitch><step>A</step><octave>4</octave></pitch><duration>2</duration><voice>1</voice><type>eighth</type><stem>up</stem><beam number="1">end</beam><voice>1</voice>
<lyric>
<syllabic>single</syllabic>
<text>sure</text>
</lyric>
</note><note default-x="74.84" default-y="-30.00" dynamics="100.00"><pitch><step>G</step><octave>4</octave></pitch><duration>2</duration><voice>1</voice><type>eighth</type><stem>up</stem><beam number="1">begin</beam><voice>1</voice>
<lyric>
<syllabic>single</syllabic>
<text>e</text>
</lyric>
</note><note default-x="95.45" default-y="-35.00" dynamics="100.00"><pitch><step>F</step><alter>1</alter><octave>4</octave></pitch><duration>2</duration><voice>1</voice><type>eighth</type><stem>up</stem><beam number="1">continue</beam><voice>1</voice>
<lyric>
<syllabic>single</syllabic>
<text>its</text>
</lyric>
</note><note default-x="116.07" default-y="-30.00" dynamics="100.00"><pitch><step>G</step><octave>4</octave></pitch><duration>2</duration><voice>1</voice><type>eighth</type><stem>up</stem><beam number="1">end</beam><voice>1</voice>
<lyric>
<syllabic>single</syllabic>
<text>not</text>
</lyric>
</note></measure><measure number="3" width="153.91"><note default-x="13.00" default-y="-40.00" dynamics="100.00"><pitch><step>E</step><octave>4</octave></pitch><duration>2</duration><voice>1</voice><type>eighth</type><stem>up</stem><beam number="1">begin</beam><voice>1</voice>
<lyric>
<syllabic>single</syllabic>
<text>the</text>
</lyric>
</note><note default-x="35.22" default-y="-45.00" dynamics="100.00"><pitch><step>D</step><octave>4</octave></pitch><duration>2</duration><voice>1</voice><type>eighth</type><stem>up</stem><beam number="1">continue</beam><voice>1</voice>
<lyric>
<syllabic>single</syllabic>
<text>e</text>
</lyric>
</note><note default-x="57.45" default-y="-60.00" dynamics="100.00"><pitch><step>A</step><octave>3</octave></pitch><duration>2</duration><voice>1</voice><type>eighth</type><stem>up</stem><beam number="1">end</beam><voice>1</voice>
<lyric>
<syllabic>single</syllabic>
<text>same</text>
</lyric>
</note><note default-x="79.67" default-y="-45.00" dynamics="100.00"><pitch><step>D</step><octave>4</octave></pitch><duration>2</duration><voice>1</voice><type>eighth</type><stem>up</stem><beam number="1">begin</beam><voice>1</voice>
<lyric>
<syllabic>single</syllabic>
<text>e</text>
</lyric>
</note><note default-x="101.89" default-y="-35.00" dynamics="100.00"><pitch><step>F</step><alter>1</alter><octave>4</octave></pitch><duration>2</duration><voice>1</voice><type>eighth</type><stem>up</stem><beam number="1">continue</beam><voice>1</voice>
<lyric>
<syllabic>single</syllabic>
<text>and</text>
</lyric>
</note><note default-x="124.12" default-y="-45.00" dynamics="100.00"><pitch><step>D</step><octave>4</octave></pitch><duration>2</duration><voice>1</voice><type>eighth</type><stem>up</stem><beam number="1">end</beam><voice>1</voice>
<lyric>
<syllabic>single</syllabic>
<text>which</text>
</lyric>
</note></measure><measure number="4" width="145.86"><note default-x="13.00" default-y="-35.00" dynamics="100.00"><pitch><step>F</step><alter>1</alter><octave>4</octave></pitch><duration>2</duration><voice>1</voice><type>eighth</type><stem>up</stem><beam number="1">begin</beam><voice>1</voice>
<lyric>
<syllabic>single</syllabic>
<text>one</text>
</lyric>
</note><note default-x="33.61" default-y="-25.00" dynamics="100.00"><pitch><step>A</step><octave>4</octave></pitch><duration>2</duration><voice>1</voice><type>eighth</type><stem>up</stem><beam number="1">continue</beam><voice>1</voice>
<lyric>
<syllabic>single</syllabic>
<text>are</text>
</lyric>
</note><note default-x="54.23" default-y="-20.00" dynamics="100.00"><pitch><step>B</step><octave>4</octave></pitch><duration>2</duration><voice>1</voice><type>eighth</type><stem>up</stem><beam number="1">end</beam><voice>1</voice>
<lyric>
<syllabic>single</syllabic>
<text>ye</text>
</lyric>
</note><note default-x="74.84" default-y="-15.00" dynamics="100.00"><pitch><step>C</step><alter>1</alter><octave>5</octave></pitch><duration>2</duration><voice>1</voice><type>eighth</type><stem>down</stem><beam number="1">begin</beam><voice>1</voice>
<lyric>
<syllabic>single</syllabic>
<text>singing</text>
</lyric>
</note><note default-x="95.45" default-y="-10.00" dynamics="100.00"><pitch><step>D</step><octave>5</octave></pitch><duration>2</duration><voice>1</voice><type>eighth</type><stem>down</stem><beam number="1">continue</beam><voice>1</voice>
<lyric>
<syllabic>single</syllabic>
<text>now</text>
</lyric>
</note><note default-x="116.07" default-y="-5.00" dynamics="100.00"><pitch><step>E</step><octave>5</octave></pitch><duration>2</duration><voice>1</voice><type>eighth</type><stem>down</stem><beam number="1">end</beam><voice>1</voice>
<lyric>
<syllabic>single</syllabic>
<text>are</text>
</lyric>
</note></measure><measure number="5" width="145.86"><note default-x="13.00" default-y="-10.00" dynamics="100.00"><pitch><step>D</step><octave>5</octave></pitch><duration>2</duration><voice>1</voice><type>eighth</type><stem>up</stem><beam number="1">begin</beam><voice>1</voice>
<lyric>
<syllabic>single</syllabic>
<text>ye</text>
</lyric>
</note><note default-x="33.61" default-y="-20.00" dynamics="100.00"><pitch><step>B</step><octave>4</octave></pitch><duration>2</duration><voice>1</voice><type>eighth</type><stem>up</stem><beam number="1">continue</beam><voice>1</voice>
<lyric>
<syllabic>single</syllabic>
<text>sure</text>
</lyric>
</note><note default-x="54.23" default-y="-40.00" dynamics="100.00"><pitch><step>E</step><octave>4</octave></pitch><duration>2</duration><voice>1</voice><type>eighth</type><stem>up</stem><beam number="1">end</beam><voice>1</voice>
<lyric>
<syllabic>single</syllabic>
<text>its</text>
</lyric>
</note><note default-x="74.84" default-y="-40.00" dynamics="100.00"><pitch><step>E</step><octave>4</octave></pitch><duration>2</duration><voice>1</voice><type>eighth</type><stem>up</stem><beam number="1">begin</beam><voice>1</voice>
<lyric>
<syllabic>single</syllabic>
<text>not</text>
</lyric>
</note><note default-x="95.45" default-y="-20.00" dynamics="100.00"><pitch><step>B</step><octave>4</octave></pitch><duration>2</duration><voice>1</voice><type>eighth</type><stem>up</stem><beam number="1">continue</beam><voice>1</voice>
<lyric>
<syllabic>single</syllabic>
<text>the</text>
</lyric>
</note><note default-x="116.07" default-y="-25.00" dynamics="100.00"><pitch><step>A</step><octave>4</octave></pitch><duration>2</duration><voice>1</voice><type>eighth</type><stem>up</stem><beam number="1">end</beam><voice>1</voice>
<lyric>
<syllabic>single</syllabic>
<text>e</text>
</lyric>
</note></measure><measure number="6" width="128.62"><note default-x="13.00" default-y="-20.00" dynamics="100.00"><pitch><step>B</step><octave>4</octave></pitch><duration>2</duration><voice>1</voice><type>eighth</type><stem>down</stem><beam number="1">begin</beam><voice>1</voice>
<lyric>
<syllabic>single</syllabic>
<text>same</text>
</lyric>
</note><note default-x="33.32" default-y="-10.00" dynamics="100.00"><pitch><step>D</step><octave>5</octave></pitch><duration>2</duration><voice>1</voice><type>eighth</type><stem>down</stem><beam number="1">continue</beam><voice>1</voice>
<lyric>
<syllabic>single</syllabic>
<text>e</text>
</lyric>
</note><note default-x="53.65" default-y="-5.00" dynamics="100.00"><pitch><step>E</step><octave>5</octave></pitch><duration>2</duration><voice>1</voice><type>eighth</type><stem>down</stem><beam number="1">end</beam><voice>1</voice>
<lyric>
<syllabic>single</syllabic>
<text>and</text>
</lyric>
</note><note default-x="73.97" default-y="0.00" dynamics="100.00"><pitch><step>F</step><alter>1</alter><octave>5</octave></pitch><duration>2</duration><voice>1</voice><type>eighth</type><stem>down</stem><voice>1</voice>
<lyric>
<syllabic>single</syllabic>
<text>which</text>
</lyric>
</note><note default-x="94.30" default-y="5.00" dynamics="100.00"><pitch><step>G</step><octave>5</octave></pitch><duration>4</duration><voice>1</voice><type>quarter</type><stem>down</stem><voice>1</voice>
<lyric>
<syllabic>single</syllabic>
<text>one</text>
</lyric>
</note></measure><measure number="7" width="230.69"><print new-system="yes"><system-layout><system-margins><left-margin>0.00</left-margin><right-margin>0.00</right-margin></system-margins><system-distance>150.00</system-distance></system-layout></print><note default-x="88.35" default-y="-5.00" dynamics="100.00"><pitch><step>E</step><octave>5</octave></pitch><duration>2</duration><voice>1</voice><type>eighth</type><stem>down</stem><beam number="1">begin</beam><voice>1</voice>
<lyric>
<syllabic>single</syllabic>
<text>are</text>
</lyric>
</note><note default-x="110.86" default-y="0.00" dynamics="100.00"><pitch><step>F</step><alter>1</alter><octave>5</octave></pitch><duration>2</duration><voice>1</voice><type>eighth</type><stem>down</stem><beam number="1">continue</beam><voice>1</voice>
<lyric>
<syllabic>single</syllabic>
<text>ye</text>
</lyric>
</note><note default-x="133.37" default-y="-10.00" dynamics="100.00"><pitch><step>D</step><octave>5</octave></pitch><duration>2</duration><voice>1</voice><type>eighth</type><stem>down</stem><beam number="1">end</beam><voice>1</voice>
<lyric>
<syllabic>single</syllabic>
<text>singing</text>
</lyric>
</note><note default-x="155.88" default-y="-20.00" dynamics="100.00"><pitch><step>B</step><octave>4</octave></pitch><duration>2</duration><voice>1</voice><type>eighth</type><stem>up</stem><beam number="1">begin</beam><voice>1</voice>
<lyric>
<syllabic>single</syllabic>
<text>now</text>
</lyric>
</note><note default-x="178.38" default-y="-25.00" dynamics="100.00"><pitch><step>A</step><octave>4</octave></pitch><duration>2</duration><voice>1</voice><type>eighth</type><stem>up</stem><beam number="1">continue</beam><voice>1</voice>
<lyric>
<syllabic>single</syllabic>
<text>are</text>
</lyric>
</note><note default-x="200.89" default-y="-30.00" dynamics="100.00"><pitch><step>G</step><octave>4</octave></pitch><duration>2</duration><voice>1</voice><type>eighth</type><stem>up</stem><beam number="1">end</beam><voice>1</voice>
<lyric>
<syllabic>single</syllabic>
<text>ye</text>
</lyric>
</note></measure><measure number="8" width="151.38"><note default-x="13.00" default-y="-35.00" dynamics="100.00"><pitch><step>F</step><alter>1</alter><octave>4</octave></pitch><duration>2</duration><voice>1</voice><type>eighth</type><stem>up</stem><beam number="1">begin</beam><voice>1</voice>
<lyric>
<syllabic>single</syllabic>
<text>sure</text>
</lyric>
</note><note default-x="36.92" default-y="-30.00" dynamics="100.00"><pitch><step>G</step><octave>4</octave></pitch><duration>2</duration><voice>1</voice><type>eighth</type><stem>up</stem><beam number="1">continue</beam><voice>1</voice>
<lyric>
<syllabic>single</syllabic>
<text>its</text>
</lyric>
</note><note default-x="60.84" default-y="-40.00" dynamics="100.00"><pitch><step>E</step><octave>4</octave></pitch><duration>2</duration><voice>1</voice><type>eighth</type><stem>up</stem><beam number="1">end</beam><voice>1</voice>
<lyric>
<syllabic>single</syllabic>
<text>not</text>
</lyric>
</note><note default-x="84.76" default-y="-40.00" dynamics="100.00"><pitch><step>E</step><octave>4</octave></pitch><duration>2</duration><voice>1</voice><type>eighth</type><stem>up</stem><voice>1</voice>
<lyric>
<syllabic>single</syllabic>
<text>the</text>
</lyric>
</note><note default-x="111.31" default-y="-40.00" dynamics="100.00"><pitch><step>E</step><octave>4</octave></pitch><duration>4</duration><voice>1</voice><type>quarter</type><stem>up</stem><voice>1</voice>
<lyric>
<syllabic>single</syllabic>
<text>same</text>
</lyric>
</note></measure><measure number="9" width="172.58"><note default-x="13.00" default-y="-30.00" dynamics="100.00"><pitch><step>G</step><octave>4</octave></pitch><duration>1</duration><voice>1</voice><type>16th</type><stem>up</stem><beam number="1">begin</beam><beam number="2">begin</beam><voice>1</voice>
<lyric>
<syllabic>single</syllabic>
<text>and</text>
</lyric>
</note><note default-x="28.45" default-y="-25.00" dynamics="100.00"><pitch><step>A</step><octave>4</octave></pitch><duration>1</duration><voice>1</voice><type>16th</type><stem>up</stem><beam number="1">continue</beam><beam number="2">end</beam><voice>1</voice>
<lyric>
<syllabic>single</syllabic>
<text>which</text>
</lyric>
</note><note default-x="43.90" default-y="-20.00" dynamics="100.00"><pitch><step>B</step><octave>4</octave></pitch><duration>2</duration><voice>1</voice><type>eighth</type><stem>up</stem><beam number="1">continue</beam><voice>1</voice>
<lyric>
<syllabic>single</syllabic>
<text>one</text>
</lyric>
</note><note default-x="68.62" default-y="-40.00" dynamics="100.00"><pitch><step>E</step><octave>4</octave></pitch><duration>2</duration><voice>1</voice><type>eighth</type><stem>up</stem><beam number="1">end</beam><voice>1</voice>
<lyric>
<syllabic>single</syllabic>
<text>are</text>
</lyric>
</note><note default-x="93.34" default-y="-40.00" dynamics="100.00"><pitch><step>E</step><octave>4</octave></pitch><duration>2</duration><voice>1</voice><type>eighth</type><stem>up</stem><beam number="1">begin</beam><voice>1</voice>
<lyric>
<syllabic>single</syllabic>
<text>ye</text>
</lyric>
</note><note default-x="118.06" default-y="-10.00" dynamics="100.00"><pitch><step>D</step><octave>5</octave></pitch><duration>2</duration><voice>1</voice><type>eighth</type><stem>up</stem><beam number="1">continue</beam><voice>1</voice>
<lyric>
<syllabic>single</syllabic>
<text>singing</text>
</lyric>
</note><note default-x="142.78" default-y="-40.00" dynamics="100.00"><pitch><step>E</step><octave>4</octave></pitch><duration>2</duration><voice>1</voice><type>eighth</type><stem>up</stem><beam number="1">end</beam><voice>1</voice>
<lyric>
<syllabic>single</syllabic>
<text>now</text>
</lyric>
</note></measure><measure number="10" width="155.33"><note default-x="13.00" default-y="-40.00" dynamics="100.00"><pitch><step>E</step><octave>4</octave></pitch><duration>2</duration><voice>1</voice><type>eighth</type><stem>up</stem><beam number="1">begin</beam><voice>1</voice>
<lyric>
<syllabic>single</syllabic>
<text>are</text>
</lyric>
</note><note default-x="35.51" default-y="-20.00" dynamics="100.00"><pitch><step>B</step><octave>4</octave></pitch><duration>2</duration><voice>1</voice><type>eighth</type><stem>up</stem><beam number="1">continue</beam><voice>1</voice>
<lyric>
<syllabic>single</syllabic>
<text>ye</text>
</lyric>
</note><note default-x="58.01" default-y="-25.00" dynamics="100.00"><pitch><step>A</step><octave>4</octave></pitch><duration>2</duration><voice>1</voice><type>eighth</type><stem>up</stem><beam number="1">end</beam><voice>1</voice>
<lyric>
<syllabic>single</syllabic>
<text>sure</text>
</lyric>
</note><note default-x="80.52" default-y="-30.00" dynamics="100.00"><pitch><step>G</step><octave>4</octave></pitch><duration>2</duration><voice>1</voice><type>eighth</type><stem>up</stem><beam number="1">begin</beam><voice>1</voice>
<lyric>
<syllabic>single</syllabic>
<text>e</text>
</lyric>
</note><note default-x="103.03" default-y="-35.00" dynamics="100.00"><pitch><step>F</step><alter>1</alter><octave>4</octave></pitch><duration>2</duration><voice>1</voice><type>eighth</type><stem>up</stem><beam number="1">continue</beam><voice>1</voice>
<lyric>
<syllabic>single</syllabic>
<text>its</text>
</lyric>
</note><note default-x="125.54" default-y="-30.00" dynamics="100.00"><pitch><step>G</step><octave>4</octave></pitch><duration>2</duration><voice>1</voice><type>eighth</type><stem>up</stem><beam number="1">end</beam><voice>1</voice>
<lyric>
<syllabic>single</syllabic>
<text>not</text>
</lyric>
</note></measure><measure number="11" width="163.38"><note default-x="13.00" default-y="-40.00" dynamics="100.00"><pitch><step>E</step><octave>4</octave></pitch><duration>2</duration><voice>1</voice><type>eighth</type><stem>up</stem><beam number="1">begin</beam><voice>1</voice>
<lyric>
<syllabic>single</syllabic>
<text>the</text>
</lyric>
</note><note default-x="37.12" default-y="-45.00" dynamics="100.00"><pitch><step>D</step><octave>4</octave></pitch><duration>2</duration><voice>1</voice><type>eighth</type><stem>up</stem><beam number="1">continue</beam><voice>1</voice>
<lyric>
<syllabic>single</syllabic>
<text>e</text>
</lyric>
</note><note default-x="61.23" default-y="-60.00" dynamics="100.00"><pitch><step>A</step><octave>3</octave></pitch><duration>2</duration><voice>1</voice><type>eighth</type><stem>up</stem><beam number="1">end</beam><voice>1</voice>
<lyric>
<syllabic>single</syllabic>
<text>same</text>
</lyric>
</note><note default-x="85.35" default-y="-45.00" dynamics="100.00"><pitch><step>D</step><octave>4</octave></pitch><duration>2</duration><voice>1</voice><type>eighth</type><stem>up</stem><beam number="1">begin</beam><voice>1</voice>
<lyric>
<syllabic>single</syllabic>
<text>e</text>
</lyric>
</note><note default-x="109.47" default-y="-35.00" dynamics="100.00"><pitch><step>F</step><alter>1</alter><octave>4</octave></pitch><duration>2</duration><voice>1</voice><type>eighth</type><stem>up</stem><beam number="1">continue</beam><voice>1</voice>
<lyric>
<syllabic>single</syllabic>
<text>and</text>
</lyric>
</note><note default-x="133.59" default-y="-45.00" dynamics="100.00"><pitch><step>D</step><octave>4</octave></pitch><duration>2</duration><voice>1</voice><type>eighth</type><stem>up</stem><beam number="1">end</beam><voice>1</voice>
<lyric>
<syllabic>single</syllabic>
<text>which</text>
</lyric>
</note></measure><measure number="12" width="155.33"><note default-x="13.00" default-y="-35.00" dynamics="100.00"><pitch><step>F</step><alter>1</alter><octave>4</octave></pitch><duration>2</duration><voice>1</voice><type>eighth</type><stem>up</stem><beam number="1">begin</beam><voice>1</voice>
<lyric>
<syllabic>single</syllabic>
<text>one</text>
</lyric>
</note><note default-x="35.51" default-y="-25.00" dynamics="100.00"><pitch><step>A</step><octave>4</octave></pitch><duration>2</duration><voice>1</voice><type>eighth</type><stem>up</stem><beam number="1">continue</beam><voice>1</voice>
<lyric>
<syllabic>single</syllabic>
<text>are</text>
</lyric>
</note><note default-x="58.01" default-y="-20.00" dynamics="100.00"><pitch><step>B</step><octave>4</octave></pitch><duration>2</duration><voice>1</voice><type>eighth</type><stem>up</stem><beam number="1">end</beam><voice>1</voice>
<lyric>
<syllabic>single</syllabic>
<text>ye</text>
</lyric>
</note><note default-x="80.52" default-y="-15.00" dynamics="100.00"><pitch><step>C</step><alter>1</alter><octave>5</octave></pitch><duration>2</duration><voice>1</voice><type>eighth</type><stem>down</stem><beam number="1">begin</beam><voice>1</voice>
<lyric>
<syllabic>single</syllabic>
<text>singing</text>
</lyric>
</note><note default-x="103.03" default-y="-10.00" dynamics="100.00"><pitch><step>D</step><octave>5</octave></pitch><duration>2</duration><voice>1</voice><type>eighth</type><stem>down</stem><beam number="1">continue</beam><voice>1</voice>
<lyric>
<syllabic>single</syllabic>
<text>now</text>
</lyric>
</note><note default-x="125.54" default-y="-5.00" dynamics="100.00"><pitch><step>E</step><octave>5</octave></pitch><duration>2</duration><voice>1</voice><type>eighth</type><stem>down</stem><beam number="1">end</beam><voice>1</voice>
<lyric>
<syllabic>single</syllabic>
<text>are</text>
</lyric>
</note></measure><measure number="13" width="212.11"><print new-system="yes"><system-layout><system-margins><left-margin>0.00</left-margin><right-margin>0.00</right-margin></system-margins><system-distance>150.00</system-distance></system-layout></print><note default-x="88.35" default-y="-10.00" dynamics="100.00"><pitch><step>D</step><octave>5</octave></pitch><duration>2</duration><voice>1</voice><type>eighth</type><stem>up</stem><beam number="1">begin</beam><voice>1</voice>
<lyric>
<syllabic>single</syllabic>
<text>ye</text>
</lyric>
</note><note default-x="107.15" default-y="-20.00" dynamics="100.00"><pitch><step>B</step><octave>4</octave></pitch><duration>2</duration><voice>1</voice><type>eighth</type><stem>up</stem><beam number="1">continue</beam><voice>1</voice>
<lyric>
<syllabic>single</syllabic>
<text>sure</text>
</lyric>
</note><note default-x="125.94" default-y="-40.00" dynamics="100.00"><pitch><step>E</step><octave>4</octave></pitch><duration>2</duration><voice>1</voice><type>eighth</type><stem>up</stem><beam number="1">end</beam><voice>1</voice>
<lyric>
<syllabic>single</syllabic>
<text>its</text>
</lyric>
</note><note default-x="144.73" default-y="-40.00" dynamics="100.00"><pitch><step>E</step><octave>4</octave></pitch><duration>2</duration><voice>1</voice><type>eighth</type><stem>up</stem><beam number="1">begin</beam><voice>1</voice>
<lyric>
<syllabic>single</syllabic>
<text>not</text>
</lyric>
</note><note default-x="163.52" default-y="-20.00" dynamics="100.00"><pitch><step>B</step><octave>4</octave></pitch><duration>2</duration><voice>1</voice><type>eighth</type><stem>up</stem><beam number="1">continue</beam><voice>1</voice>
<lyric>
<syllabic>single</syllabic>
<text>the</text>
</lyric>
</note><note default-x="182.31" default-y="-25.00" dynamics="100.00"><pitch><step>A</step><octave>4</octave></pitch><duration>2</duration><voice>1</voice><type>eighth</type><stem>up</stem><beam number="1">end</beam><voice>1</voice>
<lyric>
<syllabic>single</syllabic>
<text>e</text>
</lyric>
</note></measure><measure number="14" width="119.51"><note default-x="13.00" default-y="-20.00" dynamics="100.00"><pitch><step>B</step><octave>4</octave></pitch><duration>2</duration><voice>1</voice><type>eighth</type><stem>down</stem><beam number="1">begin</beam><voice>1</voice>
<lyric>
<syllabic>single</syllabic>
<text>same</text>
</lyric>
</note><note default-x="31.70" default-y="-10.00" dynamics="100.00"><pitch><step>D</step><octave>5</octave></pitch><duration>2</duration><voice>1</voice><type>eighth</type><stem>down</stem><beam number="1">continue</beam><voice>1</voice>
<lyric>
<syllabic>single</syllabic>
<text>e</text>
</lyric>
</note><note default-x="50.40" default-y="-5.00" dynamics="100.00"><pitch><step>E</step><octave>5</octave></pitch><duration>2</duration><voice>1</voice><type>eighth</type><stem>down</stem><beam number="1">end</beam><voice>1</voice>
<lyric>
<syllabic>single</syllabic>
<text>and</text>
</lyric>
</note><note default-x="69.10" default-y="0.00" dynamics="100.00"><pitch><step>F</step><alter>1</alter><octave>5</octave></pitch><duration>2</duration><voice>1</voice><type>eighth</type><stem>down</stem><voice>1</voice>
<lyric>
<syllabic>single</syllabic>
<text>which</text>
</lyric>
</note><note default-x="87.79" default-y="5.00" dynamics="100.00"><pitch><step>G</step><octave>5</octave></pitch><duration>4</duration><voice>1</voice><type>quarter</type><stem>down</stem><voice>1</voice>
<lyric>
<syllabic>single</syllabic>
<text>one</text>
</lyric>
</note></measure><measure number="15" width="136.76"><note default-x="13.00" default-y="-5.00" dynamics="100.00"><pitch><step>E</step><octave>5</octave></pitch><duration>2</duration><voice>1</voice><type>eighth</type><stem>down</stem><beam number="1">begin</beam><voice>1</voice>
<lyric>
<syllabic>single</syllabic>
<text>are</text>
</lyric>
</note><note default-x="31.79" default-y="0.00" dynamics="100.00"><pitch><step>F</step><alter>1</alter><octave>5</octave></pitch><duration>2</duration><voice>1</voice><type>eighth</type><stem>down</stem><beam number="1">continue</beam><voice>1</voice>
<lyric>
<syllabic>single</syllabic>
<text>ye</text>
</lyric>
</note><note default-x="50.58" default-y="-10.00" dynamics="100.00"><pitch><step>D</step><octave>5</octave></pitch><duration>2</duration><voice>1</voice><type>eighth</type><stem>down</stem><beam number="1">end</beam><voice>1</voice>
<lyric>
<syllabic>single</syllabic>
<text>singing</text>
</lyric>
</note><note default-x="69.38" default-y="-20.00" dynamics="100.00"><pitch><step>B</step><octave>4</octave></pitch><duration>2</duration><voice>1</voice><type>eighth</type><stem>up</stem><beam number="1">begin</beam><voice>1</voice>
<lyric>
<syllabic>single</syllabic>
<text>now</text>
</lyric>
</note><note default-x="88.17" default-y="-25.00" dynamics="100.00"><pitch><step>A</step><octave>4</octave></pitch><duration>2</duration><voice>1</voice><type>eighth</type><stem>up</stem><beam number="1">continue</beam><voice>1</voice>
<lyric>
<syllabic>single</syllabic>
<text>are</text>
</lyric>
</note><note default-x="106.96" default-y="-30.00" dynamics="100.00"><pitch><step>G</step><octave>4</octave></pitch><duration>2</duration><voice>1</voice><type>eighth</type><stem>up</stem><beam number="1">end</beam><voice>1</voice>
<lyric>
<syllabic>single</syllabic>
<text>ye</text>
</lyric>
</note></measure><measure number="16" width="132.80"><note default-x="13.00" default-y="-35.00" dynamics="100.00"><pitch><step>F</step><alter>1</alter><octave>4</octave></pitch><duration>2</duration><voice>1</voice><type>eighth</type><stem>up</stem><beam number="1">begin</beam><voice>1</voice>
<lyric>
<syllabic>single</syllabic>
<text>sure</text>
</lyric>
</note><note default-x="32.88" default-y="-30.00" dynamics="100.00"><pitch><step>G</step><octave>4</octave></pitch><duration>2</duration><voice>1</voice><type>eighth</type><stem>up</stem><beam number="1">continue</beam><voice>1</voice>
<lyric>
<syllabic>single</syllabic>
<text>its</text>
</lyric>
</note><note default-x="52.76" default-y="-40.00" dynamics="100.00"><pitch><step>E</step><octave>4</octave></pitch><duration>2</duration><voice>1</voice><type>eighth</type><stem>up</stem><beam number="1">end</beam><voice>1</voice>
<lyric>
<syllabic>single</syllabic>
<text>not</text>
</lyric>
</note><note default-x="72.64" default-y="-40.00" dynamics="100.00"><pitch><step>E</step><octave>4</octave></pitch><duration>2</duration><voice>1</voice><type>eighth</type><stem>up</stem><voice>1</voice>
<lyric>
<syllabic>single</syllabic>
<text>the</text>
</lyric>
</note><note default-x="99.20" default-y="-40.00" dynamics="100.00"><pitch><step>E</step><octave>4</octave></pitch><duration>4</duration><voice>1</voice><type>quarter</type><stem>up</stem><voice>1</voice>
<lyric>
<syllabic>single</syllabic>
<text>same</text>
</lyric>
</note></measure><measure number="17" width="136.76"><note default-x="13.00" default-y="-10.00" dynamics="100.00"><pitch><step>D</step><octave>5</octave></pitch><duration>2</duration><voice>1</voice><type>eighth</type><stem>down</stem><beam number="1">begin</beam><voice>1</voice>
<lyric>
<syllabic>single</syllabic>
<text>and</text>
</lyric>
</note><note default-x="31.79" default-y="-5.00" dynamics="100.00"><pitch><step>E</step><octave>5</octave></pitch><duration>2</duration><voice>1</voice><type>eighth</type><stem>down</stem><beam number="1">continue</beam><voice>1</voice>
<lyric>
<syllabic>single</syllabic>
<text>which</text>
</lyric>
</note><note default-x="50.58" default-y="0.00" dynamics="100.00"><pitch><step>F</step><alter>1</alter><octave>5</octave></pitch><duration>2</duration><voice>1</voice><type>eighth</type><stem>down</stem><beam number="1">end</beam><voice>1</voice>
<lyric>
<syllabic>single</syllabic>
<text>one</text>
</lyric>
</note><note default-x="69.38" default-y="-5.00" dynamics="100.00"><pitch><step>E</step><octave>5</octave></pitch><duration>2</duration><voice>1</voice><type>eighth</type><stem>down</stem><beam number="1">begin</beam><voice>1</voice>
<lyric>
<syllabic>single</syllabic>
<text>are</text>
</lyric>
</note><note default-x="88.17" default-y="-5.00" dynamics="100.00"><pitch><step>E</step><octave>5</octave></pitch><duration>2</duration><voice>1</voice><type>eighth</type><stem>down</stem><beam number="1">continue</beam><voice>1</voice>
<lyric>
<syllabic>single</syllabic>
<text>ye</text>
</lyric>
</note><note default-x="106.96" default-y="-10.00" dynamics="100.00"><pitch><step>D</step><octave>5</octave></pitch><duration>2</duration><voice>1</voice><type>eighth</type><stem>down</stem><beam number="1">end</beam><voice>1</voice>
<lyric>
<syllabic>single</syllabic>
<text>singing</text>
</lyric>
</note></measure><measure number="18" width="154.00"><note default-x="13.00" default-y="-20.00" dynamics="100.00"><pitch><step>B</step><octave>4</octave></pitch><duration>2</duration><voice>1</voice><type>eighth</type><stem>down</stem><beam number="1">begin</beam><voice>1</voice>
<lyric>
<syllabic>single</syllabic>
<text>now</text>
</lyric>
</note><note default-x="33.30" default-y="-5.00" dynamics="100.00"><pitch><step>E</step><octave>5</octave></pitch><duration>1</duration><voice>1</voice><type>16th</type><stem>down</stem><beam number="1">continue</beam><beam number="2">begin</beam><voice>1</voice>
<lyric>
<syllabic>single</syllabic>
<text>are</text>
</lyric>
</note><note default-x="48.30" default-y="0.00" dynamics="100.00"><pitch><step>F</step><alter>1</alter><octave>5</octave></pitch><duration>1</duration><voice>1</voice><type>16th</type><stem>down</stem><beam number="1">continue</beam><beam number="2">end</beam><voice>1</voice>
<lyric>
<syllabic>single</syllabic>
<text>ye</text>
</lyric>
</note><note default-x="63.30" default-y="5.00" dynamics="100.00"><pitch><step>G</step><octave>5</octave></pitch><duration>2</duration><voice>1</voice><type>eighth</type><stem>down</stem><beam number="1">end</beam><voice>1</voice>
<lyric>
<syllabic>single</syllabic>
<text>sure</text>
</lyric>
</note><note default-x="83.60" default-y="-5.00" dynamics="100.00"><pitch><step>E</step><octave>5</octave></pitch><duration>2</duration><voice>1</voice><type>eighth</type><stem>down</stem><beam number="1">begin</beam><voice>1</voice>
<lyric>
<syllabic>single</syllabic>
<text>e</text>
</lyric>
</note><note default-x="103.90" default-y="0.00" dynamics="100.00"><pitch><step>F</step><alter>1</alter><octave>5</octave></pitch><duration>2</duration><voice>1</voice><type>eighth</type><stem>down</stem><beam number="1">continue</beam><voice>1</voice>
<lyric>
<syllabic>single</syllabic>
<text>its</text>
</lyric>
</note><note default-x="124.21" default-y="-10.00" dynamics="100.00"><pitch><step>D</step><octave>5</octave></pitch><duration>2</duration><voice>1</voice><type>eighth</type><stem>down</stem><beam number="1">end</beam><voice>1</voice>
<lyric>
<syllabic>single</syllabic>
<text>not</text>
</lyric>
</note></measure><measure number="19" width="136.76"><note default-x="13.00" default-y="-20.00" dynamics="100.00"><pitch><step>B</step><octave>4</octave></pitch><duration>2</duration><voice>1</voice><type>eighth</type><stem>down</stem><beam number="1">begin</beam><voice>1</voice>
<lyric>
<syllabic>single</syllabic>
<text>the</text>
</lyric>
</note><note default-x="31.79" default-y="-10.00" dynamics="100.00"><pitch><step>D</step><octave>5</octave></pitch><duration>2</duration><voice>1</voice><type>eighth</type><stem>down</stem><beam number="1">continue</beam><voice>1</voice>
<lyric>
<syllabic>single</syllabic>
<text>e</text>
</lyric>
</note><note default-x="50.58" default-y="-5.00" dynamics="100.00"><pitch><step>E</step><octave>5</octave></pitch><duration>2</duration><voice>1</voice><type>eighth</type><stem>down</stem><beam number="1">end</beam><voice>1</voice>
<lyric>
<syllabic>single</syllabic>
<text>same</text>
</lyric>
</note><note default-x="69.38" default-y="-15.00" dynamics="100.00"><pitch><step>C</step><alter>1</alter><octave>5</octave></pitch><duration>2</duration><voice>1</voice><type>eighth</type><stem>down</stem><beam number="1">begin</beam><voice>1</voice>
<lyric>
<syllabic>single</syllabic>
<text>e</text>
</lyric>
</note><note default-x="88.17" default-y="-10.00" dynamics="100.00"><pitch><step>D</step><octave>5</octave></pitch><duration>2</duration><voice>1</voice><type>eighth</type><stem>down</stem><beam number="1">continue</beam><voice>1</voice>
<lyric>
<syllabic>single</syllabic>
<text>and</text>
</lyric>
</note><note default-x="106.96" default-y="-25.00" dynamics="100.00"><pitch><step>A</step><octave>4</octave></pitch><duration>2</duration><voice>1</voice><type>eighth</type><stem>down</stem><beam number="1">end</beam><voice>1</voice>
<lyric>
<syllabic>single</syllabic>
<text>which</text>
</lyric>
</note></measure><measure number="20" width="208.98"><print new-system="yes"><system-layout><system-margins><left-margin>0.00</left-margin><right-margin>0.00</right-margin></system-margins><system-distance>150.00</system-distance></system-layout></print><note default-x="88.35" default-y="-35.00" dynamics="100.00"><pitch><step>F</step><alter>1</alter><octave>4</octave></pitch><duration>2</duration><voice>1</voice><type>eighth</type><stem>up</stem><beam number="1">begin</beam><voice>1</voice>
<lyric>
<syllabic>single</syllabic>
<text>one</text>
</lyric>
</note><note default-x="106.52" default-y="-45.00" dynamics="100.00"><pitch><step>D</step><octave>4</octave></pitch><duration>2</duration><voice>1</voice><type>eighth</type><stem>up</stem><beam number="1">continue</beam><voice>1</voice>
<lyric>
<syllabic>single</syllabic>
<text>are</text>
</lyric>
</note><note default-x="124.69" default-y="-35.00" dynamics="100.00"><pitch><step>F</step><alter>1</alter><octave>4</octave></pitch><duration>2</duration><voice>1</voice><type>eighth</type><stem>up</stem><beam number="1">end</beam><voice>1</voice>
<lyric>
<syllabic>single</syllabic>
<text>ye</text>
</lyric>
</note><note default-x="142.85" default-y="-25.00" dynamics="100.00"><pitch><step>A</step><octave>4</octave></pitch><duration>2</duration><voice>1</voice><type>eighth</type><stem>down</stem><beam number="1">begin</beam><voice>1</voice>
<lyric>
<syllabic>single</syllabic>
<text>singing</text>
</lyric>
</note><note default-x="161.02" default-y="-10.00" dynamics="100.00"><pitch><step>D</step><octave>5</octave></pitch><duration>2</duration><voice>1</voice><type>eighth</type><stem>down</stem><beam number="1">continue</beam><voice>1</voice>
<lyric>
<syllabic>single</syllabic>
<text>now</text>
</lyric>
</note><note default-x="179.19" default-y="-5.00" dynamics="100.00"><pitch><step>E</step><octave>5</octave></pitch><duration>2</duration><voice>1</voice><type>eighth</type><stem>down</stem><beam number="1">end</beam><voice>1</voice>
<lyric>
<syllabic>single</syllabic>
<text>are</text>
</lyric>
</note></measure><measure number="21" width="133.63"><note default-x="13.00" default-y="0.00" dynamics="100.00"><pitch><step>F</step><alter>1</alter><octave>5</octave></pitch><duration>2</duration><voice>1</voice><type>eighth</type><stem>down</stem><beam number="1">begin</beam><voice>1</voice>
<lyric>
<syllabic>single</syllabic>
<text>ye</text>
</lyric>
</note><note default-x="31.17" default-y="-5.00" dynamics="100.00"><pitch><step>E</step><octave>5</octave></pitch><duration>2</duration><voice>1</voice><type>eighth</type><stem>down</stem><beam number="1">continue</beam><voice>1</voice>
<lyric>
<syllabic>single</syllabic>
<text>sure</text>
</lyric>
</note><note default-x="49.33" default-y="0.00" dynamics="100.00"><pitch><step>F</step><alter>1</alter><octave>5</octave></pitch><duration>2</duration><voice>1</voice><type>eighth</type><stem>down</stem><beam number="1">end</beam><voice>1</voice>
<lyric>
<syllabic>single</syllabic>
<text>its</text>
</lyric>
</note><note default-x="67.50" default-y="-5.00" dynamics="100.00"><pitch><step>E</step><octave>5</octave></pitch><duration>2</duration><voice>1</voice><type>eighth</type><stem>down</stem><beam number="1">begin</beam><voice>1</voice>
<lyric>
<syllabic>single</syllabic>
<text>not</text>
</lyric>
</note><note default-x="85.67" default-y="-5.00" dynamics="100.00"><pitch><step>E</step><octave>5</octave></pitch><duration>2</duration><voice>1</voice><type>eighth</type><stem>down</stem><beam number="1">continue</beam><voice>1</voice>
<lyric>
<syllabic>single</syllabic>
<text>the</text>
</lyric>
</note><note default-x="103.83" default-y="-10.00" dynamics="100.00"><pitch><step>D</step><octave>5</octave></pitch><duration>2</duration><voice>1</voice><type>eighth</type><stem>down</stem><beam number="1">end</beam><voice>1</voice>
<lyric>
<syllabic>single</syllabic>
<text>e</text>
</lyric>
</note></measure><measure number="22" width="116.39"><note default-x="13.00" default-y="-20.00" dynamics="100.00"><pitch><step>B</step><octave>4</octave></pitch><duration>2</duration><voice>1</voice><type>eighth</type><stem>down</stem><beam number="1">begin</beam><voice>1</voice>
<lyric>
<syllabic>single</syllabic>
<text>same</text>
</lyric>
</note><note default-x="31.14" default-y="-10.00" dynamics="100.00"><pitch><step>D</step><octave>5</octave></pitch><duration>2</duration><voice>1</voice><type>eighth</type><stem>down</stem><beam number="1">continue</beam><voice>1</voice>
<lyric>
<syllabic>single</syllabic>
<text>e</text>
</lyric>
</note><note default-x="49.28" default-y="-5.00" dynamics="100.00"><pitch><step>E</step><octave>5</octave></pitch><duration>2</duration><voice>1</voice><type>eighth</type><stem>down</stem><beam number="1">end</beam><voice>1</voice>
<lyric>
<syllabic>single</syllabic>
<text>and</text>
</lyric>
</note><note default-x="67.42" default-y="0.00" dynamics="100.00"><pitch><step>F</step><alter>1</alter><octave>5</octave></pitch><duration>2</duration><voice>1</voice><type>eighth</type><stem>down</stem><voice>1</voice>
<lyric>
<syllabic>single</syllabic>
<text>which</text>
</lyric>
</note><note default-x="85.56" default-y="5.00" dynamics="100.00"><pitch><step>G</step><octave>5</octave></pitch><duration>4</duration><voice>1</voice><type>quarter</type><stem>down</stem><voice>1</voice>
<lyric>
<syllabic>single</syllabic>
<text>one</text>
</lyric>
</note></measure><measure number="23" width="161.28"><note default-x="16.50" default-y="10.00" dynamics="100.00"><pitch><step>A</step><octave>5</octave></pitch><duration>2</duration><voice>1</voice><type>eighth</type><stem>down</stem><beam number="1">begin</beam><voice>1</voice>
<lyric>
<syllabic>single</syllabic>
<text>are</text>
</lyric>
</note><note default-x="39.50" default-y="15.00" dynamics="100.00"><pitch><step>B</step><octave>5</octave></pitch><duration>2</duration><voice>1</voice><type>eighth</type><stem>down</stem><beam number="1">continue</beam><voice>1</voice>
<lyric>
<syllabic>single</syllabic>
<text>ye</text>
</lyric>
</note><note default-x="62.49" default-y="5.00" dynamics="100.00"><pitch><step>G</step><octave>5</octave></pitch><duration>2</duration><voice>1</voice><type>eighth</type><stem>down</stem><beam number="1">end</beam><voice>1</voice>
<lyric>
<syllabic>single</syllabic>
<text>singing</text>
</lyric>
</note><note default-x="85.49" default-y="15.00" dynamics="100.00"><pitch><step>B</step><octave>5</octave></pitch><duration>2</duration><voice>1</voice><type>eighth</type><stem>down</stem><beam number="1">begin</beam><voice>1</voice>
<lyric>
<syllabic>single</syllabic>
<text>now</text>
</lyric>
</note><note default-x="108.49" default-y="10.00" dynamics="100.00"><pitch><step>A</step><octave>5</octave></pitch><duration>2</duration><voice>1</voice><type>eighth</type><stem>down</stem><beam number="1">continue</beam><voice>1</voice>
<lyric>
<syllabic>single</syllabic>
<text>are</text>
</lyric>
</note><note default-x="131.48" default-y="0.00" dynamics="100.00"><pitch><step>F</step><alter>1</alter><octave>5</octave></pitch><duration>2</duration><voice>1</voice><type>eighth</type><stem>down</stem><beam number="1">end</beam><voice>1</voice>
<lyric>
<syllabic>single</syllabic>
<text>ye</text>
</lyric>
</note></measure><measure number="24" width="123.91"><note default-x="16.50" default-y="10.00" dynamics="100.00"><pitch><step>A</step><octave>5</octave></pitch><duration>2</duration><voice>1</voice><type>eighth</type><stem>down</stem><beam number="1">begin</beam><voice>1</voice>
<lyric>
<syllabic>single</syllabic>
<text>sure</text>
</lyric>
</note><note default-x="35.36" default-y="5.00" dynamics="100.00"><pitch><step>G</step><octave>5</octave></pitch><duration>2</duration><voice>1</voice><type>eighth</type><stem>down</stem><beam number="1">continue</beam><voice>1</voice>
<lyric>
<syllabic>single</syllabic>
<text>its</text>
</lyric>
</note><note default-x="54.22" default-y="-5.00" dynamics="100.00"><pitch><step>E</step><octave>5</octave></pitch><duration>2</duration><voice>1</voice><type>eighth</type><stem>down</stem><beam number="1">end</beam><voice>1</voice>
<lyric>
<syllabic>single</syllabic>
<text>not</text>
</lyric>
</note><note default-x="73.08" default-y="-5.00" dynamics="100.00"><pitch><step>E</step><octave>5</octave></pitch><duration>2</duration><voice>1</voice><type>eighth</type><stem>down</stem><voice>1</voice>
<lyric>
<syllabic>single</syllabic>
<text>the</text>
</lyric>
</note><note default-x="91.94" default-y="-5.00" dynamics="100.00"><pitch><step>E</step><octave>5</octave></pitch><duration>4</duration><voice>1</voice><type>quarter</type><stem>down</stem><voice>1</voice>
<lyric>
<syllabic>single</syllabic>
<text>same</text>
</lyric>
</note></measure><measure number="25" width="150.88"><note default-x="13.00" default-y="-30.00" dynamics="100.00"><pitch><step>G</step><octave>4</octave></pitch><duration>1</duration><voice>1</voice><type>16th</type><stem>up</stem><beam number="1">begin</beam><beam number="2">begin</beam><voice>1</voice>
<lyric>
<syllabic>single</syllabic>
<text>and</text>
</lyric>
</note><note default-x="28.00" default-y="-25.00" dynamics="100.00"><pitch><step>A</step><octave>4</octave></pitch><duration>1</duration><voice>1</voice><type>16th</type><stem>up</stem><beam number="1">continue</beam><beam number="2">end</beam><voice>1</voice>
<lyric>
<syllabic>single</syllabic>
<text>which</text>
</lyric>
</note><note default-x="42.99" default-y="-20.00" dynamics="100.00"><pitch><step>B</step><octave>4</octave></pitch><duration>2</duration><voice>1</voice><type>eighth</type><stem>up</stem><beam number="1">continue</beam><voice>1</voice>
<lyric>
<syllabic>single</syllabic>
<text>one</text>
</lyric>
</note><note default-x="62.52" default-y="-40.00" dynamics="100.00"><pitch><step>E</step><octave>4</octave></pitch><duration>2</duration><voice>1</voice><type>eighth</type><stem>up</stem><beam number="1">end</beam><voice>1</voice>
<lyric>
<syllabic>single</syllabic>
<text>are</text>
</lyric>
</note><note default-x="82.04" default-y="-40.00" dynamics="100.00"><pitch><step>E</step><octave>4</octave></pitch><duration>2</duration><voice>1</voice><type>eighth</type><stem>up</stem><beam number="1">begin</beam><voice>1</voice>
<lyric>
<syllabic>single</syllabic>
<text>ye</text>
</lyric>
</note><note default-x="101.56" default-y="-10.00" dynamics="100.00"><pitch><step>D</step><octave>5</octave></pitch><duration>2</duration><voice>1</voice><type>eighth</type><stem>up</stem><beam number="1">continue</beam><voice>1</voice>
<lyric>
<syllabic>single</syllabic>
<text>singing</text>
</lyric>
</note><note default-x="121.08" default-y="-40.00" dynamics="100.00"><pitch><step>E</step><octave>4</octave></pitch><duration>2</duration><voice>1</voice><type>eighth</type><stem>up</stem><beam number="1">end</beam><voice>1</voice>
<lyric>
<syllabic>single</syllabic>
<text>now</text>
</lyric>
</note></measure><measure number="26" width="133.63"><note default-x="13.00" default-y="-40.00" dynamics="100.00"><pitch><step>E</step><octave>4</octave></pitch><duration>2</duration><voice>1</voice><type>eighth</type><stem>up</stem><beam number="1">begin</beam><voice>1</voice>
<lyric>
<syllabic>single</syllabic>
<text>are</text>
</lyric>
</note><note default-x="31.17" default-y="-20.00" dynamics="100.00"><pitch><step>B</step><octave>4</octave></pitch><duration>2</duration><voice>1</voice><type>eighth</type><stem>up</stem><beam number="1">continue</beam><voice>1</voice>
<lyric>
<syllabic>single</syllabic>
<text>ye</text>
</lyric>
</note><note default-x="49.33" default-y="-25.00" dynamics="100.00"><pitch><step>A</step><octave>4</octave></pitch><duration>2</duration><voice>1</voice><type>eighth</type><stem>up</stem><beam number="1">end</beam><voice>1</voice>
<lyric>
<syllabic>single</syllabic>
<text>sure</text>
</lyric>
</note><note default-x="67.50" default-y="-30.00" dynamics="100.00"><pitch><step>G</step><octave>4</octave></pitch><duration>2</duration><voice>1</voice><type>eighth</type><stem>up</stem><beam number="1">begin</beam><voice>1</voice>
<lyric>
<syllabic>single</syllabic>
<text>e</text>
</lyric>
</note><note default-x="85.67" default-y="-35.00" dynamics="100.00"><pitch><step>F</step><alter>1</alter><octave>4</octave></pitch><duration>2</duration><voice>1</voice><type>eighth</type><stem>up</stem><beam number="1">continue</beam><voice>1</voice>
<lyric>
<syllabic>single</syllabic>
<text>its</text>
</lyric>
</note><note default-x="103.83" default-y="-30.00" dynamics="100.00"><pitch><step>G</step><octave>4</octave></pitch><duration>2</duration><voice>1</voice><type>eighth</type><stem>up</stem><beam number="1">end</beam><voice>1</voice>
<lyric>
<syllabic>single</syllabic>
<text>not</text>
</lyric>
</note></measure><measure number="27" width="219.01"><print new-system="yes"><system-layout><system-margins><left-margin>0.00</left-margin><right-margin>0.00</right-margin></system-margins><system-distance>150.00</system-distance></system-layout></print><note default-x="88.35" default-y="-40.00" dynamics="100.00"><pitch><step>E</step><octave>4</octave></pitch><duration>2</duration><voice>1</voice><type>eighth</type><stem>up</stem><beam number="1">begin</beam><voice>1</voice>
<lyric>
<syllabic>single</syllabic>
<text>the</text>
</lyric>
</note><note default-x="108.53" default-y="-45.00" dynamics="100.00"><pitch><step>D</step><octave>4</octave></pitch><duration>2</duration><voice>1</voice><type>eighth</type><stem>up</stem><beam number="1">continue</beam><voice>1</voice>
<lyric>
<syllabic>single</syllabic>
<text>e</text>
</lyric>
</note><note default-x="128.70" default-y="-60.00" dynamics="100.00"><pitch><step>A</step><octave>3</octave></pitch><duration>2</duration><voice>1</voice><type>eighth</type><stem>up</stem><beam number="1">end</beam><voice>1</voice>
<lyric>
<syllabic>single</syllabic>
<text>same</text>
</lyric>
</note><note default-x="148.87" default-y="-45.00" dynamics="100.00"><pitch><step>D</step><octave>4</octave></pitch><duration>2</duration><voice>1</voice><type>eighth</type><stem>up</stem><beam number="1">begin</beam><voice>1</voice>
<lyric>
<syllabic>single</syllabic>
<text>e</text>
</lyric>
</note><note default-x="169.04" default-y="-35.00" dynamics="100.00"><pitch><step>F</step><alter>1</alter><octave>4</octave></pitch><duration>2</duration><voice>1</voice><type>eighth</type><stem>up</stem><beam number="1">continue</beam><voice>1</voice>
<lyric>
<syllabic>single</syllabic>
<text>and</text>
</lyric>
</note><note default-x="189.21" default-y="-45.00" dynamics="100.00"><pitch><step>D</step><octave>4</octave></pitch><duration>2</duration><voice>1</voice><type>eighth</type><stem>up</stem><beam number="1">end</beam><voice>1</voice>
<lyric>
<syllabic>single</syllabic>
<text>which</text>
</lyric>
</note></measure><measure number="28" width="135.61"><note default-x="13.00" default-y="-35.00" dynamics="100.00"><pitch><step>F</step><alter>1</alter><octave>4</octave></pitch><duration>2</duration><voice>1</voice><type>eighth</type><stem>up</stem><beam number="1">begin</beam><voice>1</voice>
<lyric>
<syllabic>single</syllabic>
<text>one</text>
</lyric>
</note><note default-x="31.56" default-y="-25.00" dynamics="100.00"><pitch><step>A</step><octave>4</octave></pitch><duration>2</duration><voice>1</voice><type>eighth</type><stem>up</stem><beam number="1">continue</beam><voice>1</voice>
<lyric>
<syllabic>single</syllabic>
<text>are</text>
</lyric>
</note><note default-x="50.12" default-y="-20.00" dynamics="100.00"><pitch><step>B</step><octave>4</octave></pitch><duration>2</duration><voice>1</voice><type>eighth</type><stem>up</stem><beam number="1">end</beam><voice>1</voice>
<lyric>
<syllabic>single</syllabic>
<text>ye</text>
</lyric>
</note><note default-x="68.69" default-y="-15.00" dynamics="100.00"><pitch><step>C</step><alter>1</alter><octave>5</octave></pitch><duration>2</duration><voice>1</voice><type>eighth</type><stem>down</stem><beam number="1">begin</beam><voice>1</voice>
<lyric>
<syllabic>single</syllabic>
<text>singing</text>
</lyric>
</note><note default-x="87.25" default-y="-10.00" dynamics="100.00"><pitch><step>D</step><octave>5</octave></pitch><duration>2</duration><voice>1</voice><type>eighth</type><stem>down</stem><beam number="1">continue</beam><voice>1</voice>
<lyric>
<syllabic>single</syllabic>
<text>now</text>
</lyric>
</note><note default-x="105.81" default-y="-5.00" dynamics="100.00"><pitch><step>E</step><octave>5</octave></pitch><duration>2</duration><voice>1</voice><type>eighth</type><stem>down</stem><beam number="1">end</beam><voice>1</voice>
<lyric>
<syllabic>single</syllabic>
<text>are</text>
</lyric>
</note></measure><measure number="29" width="135.61"><note default-x="13.00" default-y="-10.00" dynamics="100.00"><pitch><step>D</step><octave>5</octave></pitch><duration>2</duration><voice>1</voice><type>eighth</type><stem>up</stem><beam number="1">begin</beam><voice>1</voice>
<lyric>
<syllabic>single</syllabic>
<text>ye</text>
</lyric>
</note><note default-x="31.56" default-y="-20.00" dynamics="100.00"><pitch><step>B</step><octave>4</octave></pitch><duration>2</duration><voice>1</voice><type>eighth</type><stem>up</stem><beam number="1">continue</beam><voice>1</voice>
<lyric>
<syllabic>single</syllabic>
<text>sure</text>
</lyric>
</note><note default-x="50.12" default-y="-40.00" dynamics="100.00"><pitch><step>E</step><octave>4</octave></pitch><duration>2</duration><voice>1</voice><type>eighth</type><stem>up</stem><beam number="1">end</beam><voice>1</voice>
<lyric>
<syllabic>single</syllabic>
<text>its</text>
</lyric>
</note><note default-x="68.69" default-y="-40.00" dynamics="100.00"><pitch><step>E</step><octave>4</octave></pitch><duration>2</duration><voice>1</voice><type>eighth</type><stem>up</stem><beam number="1">begin</beam><voice>1</voice>
<lyric>
<syllabic>single</syllabic>
<text>not</text>
</lyric>
</note><note default-x="87.25" default-y="-20.00" dynamics="100.00"><pitch><step>B</step><octave>4</octave></pitch><duration>2</duration><voice>1</voice><type>eighth</type><stem>up</stem><beam number="1">continue</beam><voice>1</voice>
<lyric>
<syllabic>single</syllabic>
<text>the</text>
</lyric>
</note><note default-x="105.81" default-y="-25.00" dynamics="100.00"><pitch><step>A</step><octave>4</octave></pitch><duration>2</duration><voice>1</voice><type>eighth</type><stem>up</stem><beam number="1">end</beam><voice>1</voice>
<lyric>
<syllabic>single</syllabic>
<text>e</text>
</lyric>
</note></measure><measure number="30" width="118.36"><note default-x="13.00" default-y="-20.00" dynamics="100.00"><pitch><step>B</step><octave>4</octave></pitch><duration>2</duration><voice>1</voice><type>eighth</type><stem>down</stem><beam number="1">begin</beam><voice>1</voice>
<lyric>
<syllabic>single</syllabic>
<text>same</text>
</lyric>
</note><note default-x="31.49" default-y="-10.00" dynamics="100.00"><pitch><step>D</step><octave>5</octave></pitch><duration>2</duration><voice>1</voice><type>eighth</type><stem>down</stem><beam number="1">continue</beam><voice>1</voice>
<lyric>
<syllabic>single</syllabic>
<text>e</text>
</lyric>
</note><note default-x="49.99" default-y="-5.00" dynamics="100.00"><pitch><step>E</step><octave>5</octave></pitch><duration>2</duration><voice>1</voice><type>eighth</type><stem>down</stem><beam number="1">end</beam><voice>1</voice>
<lyric>
<syllabic>single</syllabic>
<text>and</text>
</lyric>
</note><note default-x="68.48" default-y="0.00" dynamics="100.00"><pitch><step>F</step><alter>1</alter><octave>5</octave></pitch><duration>2</duration><voice>1</voice><type>eighth</type><stem>down</stem><voice>1</voice>
<lyric>
<syllabic>single</syllabic>
<text>which</text>
</lyric>
</note><note default-x="86.97" default-y="5.00" dynamics="100.00"><pitch><step>G</step><octave>5</octave></pitch><duration>4</duration><voice>1</voice><type>quarter</type><stem>down</stem><voice>1</voice>
<lyric>
<syllabic>single</syllabic>
<text>one</text>
</lyric>
</note></measure><measure number="31" width="135.61"><note default-x="13.00" default-y="-5.00" dynamics="100.00"><pitch><step>E</step><octave>5</octave></pitch><duration>2</duration><voice>1</voice><type>eighth</type><stem>down</stem><beam number="1">begin</beam><voice>1</voice>
<lyric>
<syllabic>single</syllabic>
<text>are</text>
</lyric>
</note><note default-x="31.56" default-y="0.00" dynamics="100.00"><pitch><step>F</step><alter>1</alter><octave>5</octave></pitch><duration>2</duration><voice>1</voice><type>eighth</type><stem>down</stem><beam number="1">continue</beam><voice>1</voice>
<lyric>
<syllabic>single</syllabic>
<text>ye</text>
</lyric>
</note><note default-x="50.12" default-y="-10.00" dynamics="100.00"><pitch><step>D</step><octave>5</octave></pitch><duration>2</duration><voice>1</voice><type>eighth</type><stem>down</stem><beam number="1">end</beam><voice>1</voice>
<lyric>
<syllabic>single</syllabic>
<text>singing</text>
</lyric>
</note><note default-x="68.69" default-y="-20.00" dynamics="100.00"><pitch><step>B</step><octave>4</octave></pitch><duration>2</duration><voice>1</voice><type>eighth</type><stem>up</stem><beam number="1">begin</beam><voice>1</voice>
<lyric>
<syllabic>single</syllabic>
<text>now</text>
</lyric>
</note><note default-x="87.25" default-y="-25.00" dynamics="100.00"><pitch><step>A</step><octave>4</octave></pitch><duration>2</duration><voice>1</voice><type>eighth</type><stem>up</stem><beam number="1">continue</beam><voice>1</voice>
<lyric>
<syllabic>single</syllabic>
<text>are</text>
</lyric>
</note><note default-x="105.81" default-y="-30.00" dynamics="100.00"><pitch><step>G</step><octave>4</octave></pitch><duration>2</duration><voice>1</voice><type>eighth</type><stem>up</stem><beam number="1">end</beam><voice>1</voice>
<lyric>
<syllabic>single</syllabic>
<text>ye</text>
</lyric>
</note></measure><measure number="32" width="131.65"><note default-x="13.00" default-y="-35.00" dynamics="100.00"><pitch><step>F</step><alter>1</alter><octave>4</octave></pitch><duration>2</duration><voice>1</voice><type>eighth</type><stem>up</stem><beam number="1">begin</beam><voice>1</voice>
<lyric>
<syllabic>single</syllabic>
<text>sure</text>
</lyric>
</note><note default-x="32.63" default-y="-30.00" dynamics="100.00"><pitch><step>G</step><octave>4</octave></pitch><duration>2</duration><voice>1</voice><type>eighth</type><stem>up</stem><beam number="1">continue</beam><voice>1</voice>
<lyric>
<syllabic>single</syllabic>
<text>its</text>
</lyric>
</note><note default-x="52.26" default-y="-40.00" dynamics="100.00"><pitch><step>E</step><octave>4</octave></pitch><duration>2</duration><voice>1</voice><type>eighth</type><stem>up</stem><beam number="1">end</beam><voice>1</voice>
<lyric>
<syllabic>single</syllabic>
<text>not</text>
</lyric>
</note><note default-x="71.89" default-y="-40.00" dynamics="100.00"><pitch><step>E</step><octave>4</octave></pitch><duration>2</duration><voice>1</voice><type>eighth</type><stem>up</stem><voice>1</voice>
<lyric>
<syllabic>single</syllabic>
<text>the</text>
</lyric>
</note><note default-x="98.45" default-y="-40.00" dynamics="100.00"><pitch><step>E</step><octave>4</octave></pitch><duration>4</duration><voice>1</voice><type>quarter</type><stem>up</stem><voice>1</voice>
<lyric>
<syllabic>single</syllabic>
<text>same</text>
</lyric>
</note></measure><measure number="33" width="152.85"><note default-x="13.00" default-y="-30.00" dynamics="100.00"><pitch><step>G</step><octave>4</octave></pitch><duration>1</duration><voice>1</voice><type>16th</type><stem>up</stem><beam number="1">begin</beam><beam number="2">begin</beam><voice>1</voice>
<lyric>
<syllabic>single</syllabic>
<text>and</text>
</lyric>
</note><note default-x="28.00" default-y="-25.00" dynamics="100.00"><pitch><step>A</step><octave>4</octave></pitch><duration>1</duration><voice>1</voice><type>16th</type><stem>up</stem><beam number="1">continue</beam><beam number="2">end</beam><voice>1</voice>
<lyric>
<syllabic>single</syllabic>
<text>which</text>
</lyric>
</note><note default-x="42.99" default-y="-20.00" dynamics="100.00"><pitch><step>B</step><octave>4</octave></pitch><duration>2</duration><voice>1</voice><type>eighth</type><stem>up</stem><beam number="1">continue</beam><voice>1</voice>
<lyric>
<syllabic>single</syllabic>
<text>one</text>
</lyric>
</note><note default-x="63.01" default-y="-40.00" dynamics="100.00"><pitch><step>E</step><octave>4</octave></pitch><duration>2</duration><voice>1</voice><type>eighth</type><stem>up</stem><beam number="1">end</beam><voice>1</voice>
<lyric>
<syllabic>single</syllabic>
<text>are</text>
</lyric>
</note><note default-x="83.03" default-y="-40.00" dynamics="100.00"><pitch><step>E</step><octave>4</octave></pitch><duration>2</duration><voice>1</voice><type>eighth</type><stem>up</stem><beam number="1">begin</beam><voice>1</voice>
<lyric>
<syllabic>single</syllabic>
<text>ye</text>
</lyric>
</note><note default-x="103.04" default-y="-10.00" dynamics="100.00"><pitch><step>D</step><octave>5</octave></pitch><duration>2</duration><voice>1</voice><type>eighth</type><stem>up</stem><beam number="1">continue</beam><voice>1</voice>
<lyric>
<syllabic>single</syllabic>
<text>singing</text>
</lyric>
</note><note default-x="123.06" default-y="-40.00" dynamics="100.00"><pitch><step>E</step><octave>4</octave></pitch><duration>2</duration><voice>1</voice><type>eighth</type><stem>up</stem><beam number="1">end</beam><voice>1</voice>
<lyric>
<syllabic>single</syllabic>
<text>now</text>
</lyric>
</note></measure><measure number="34" width="213.42"><print new-system="yes"><system-layout><system-margins><left-margin>0.00</left-margin><right-margin>0.00</right-margin></system-margins><system-distance>150.00</system-distance></system-layout></print><note default-x="88.35" default-y="-40.00" dynamics="100.00"><pitch><step>E</step><octave>4</octave></pitch><duration>2</duration><voice>1</voice><type>eighth</type><stem>up</stem><beam number="1">begin</beam><voice>1</voice>
<lyric>
<syllabic>single</syllabic>
<text>are</text>
</lyric>
</note><note default-x="107.41" default-y="-20.00" dynamics="100.00"><pitch><step>B</step><octave>4</octave></pitch><duration>2</duration><voice>1</voice><type>eighth</type><stem>up</stem><beam number="1">continue</beam><voice>1</voice>
<lyric>
<syllabic>single</syllabic>
<text>ye</text>
</lyric>
</note><note default-x="126.46" default-y="-25.00" dynamics="100.00"><pitch><step>A</step><octave>4</octave></pitch><duration>2</duration><voice>1</voice><type>eighth</type><stem>up</stem><beam number="1">end</beam><voice>1</voice>
<lyric>
<syllabic>single</syllabic>
<text>sure</text>
</lyric>
</note><note default-x="145.52" default-y="-30.00" dynamics="100.00"><pitch><step>G</step><octave>4</octave></pitch><duration>2</duration><voice>1</voice><type>eighth</type><stem>up</stem><beam number="1">begin</beam><voice>1</voice>
<lyric>
<syllabic>single</syllabic>
<text>e</text>
</lyric>
</note><note default-x="164.57" default-y="-35.00" dynamics="100.00"><pitch><step>F</step><alter>1</alter><octave>4</octave></pitch><duration>2</duration><voice>1</voice><type>eighth</type><stem>up</stem><beam number="1">continue</beam><voice>1</voice>
<lyric>
<syllabic>single</syllabic>
<text>its</text>
</lyric>
</note><note default-x="183.63" default-y="-30.00" dynamics="100.00"><pitch><step>G</step><octave>4</octave></pitch><duration>2</duration><voice>1</voice><type>eighth</type><stem>up</stem><beam number="1">end</beam><voice>1</voice>
<lyric>
<syllabic>single</syllabic>
<text>not</text>
</lyric>
</note></measure><measure number="35" width="146.12"><note default-x="13.00" default-y="-40.00" dynamics="100.00"><pitch><step>E</step><octave>4</octave></pitch><duration>2</duration><voice>1</voice><type>eighth</type><stem>up</stem><beam number="1">begin</beam><voice>1</voice>
<lyric>
<syllabic>single</syllabic>
<text>the</text>
</lyric>
</note><note default-x="33.66" default-y="-45.00" dynamics="100.00"><pitch><step>D</step><octave>4</octave></pitch><duration>2</duration><voice>1</voice><type>eighth</type><stem>up</stem><beam number="1">continue</beam><voice>1</voice>
<lyric>
<syllabic>single</syllabic>
<text>e</text>
</lyric>
</note><note default-x="54.33" default-y="-60.00" dynamics="100.00"><pitch><step>A</step><octave>3</octave></pitch><duration>2</duration><voice>1</voice><type>eighth</type><stem>up</stem><beam number="1">end</beam><voice>1</voice>
<lyric>
<syllabic>single</syllabic>
<text>same</text>
</lyric>
</note><note default-x="74.99" default-y="-45.00" dynamics="100.00"><pitch><step>D</step><octave>4</octave></pitch><duration>2</duration><voice>1</voice><type>eighth</type><stem>up</stem><beam number="1">begin</beam><voice>1</voice>
<lyric>
<syllabic>single</syllabic>
<text>e</text>
</lyric>
</note><note default-x="95.66" default-y="-35.00" dynamics="100.00"><pitch><step>F</step><alter>1</alter><octave>4</octave></pitch><duration>2</duration><voice>1</voice><type>eighth</type><stem>up</stem><beam number="1">continue</beam><voice>1</voice>
<lyric>
<syllabic>single</syllabic>
<text>and</text>
</lyric>
</note><note default-x="116.32" default-y="-45.00" dynamics="100.00"><pitch><step>D</step><octave>4</octave></pitch><duration>2</duration><voice>1</voice><type>eighth</type><stem>up</stem><beam number="1">end</beam><voice>1</voice>
<lyric>
<syllabic>single</syllabic>
<text>which</text>
</lyric>
</note></measure><measure number="36" width="138.07"><note default-x="13.00" default-y="-35.00" dynamics="100.00"><pitch><step>F</step><alter>1</alter><octave>4</octave></pitch><duration>2</duration><voice>1</voice><type>eighth</type><stem>up</stem><beam number="1">begin</beam><voice>1</voice>
<lyric>
<syllabic>single</syllabic>
<text>one</text>
</lyric>
</note><note default-x="32.05" default-y="-25.00" dynamics="100.00"><pitch><step>A</step><octave>4</octave></pitch><duration>2</duration><voice>1</voice><type>eighth</type><stem>up</stem><beam number="1">continue</beam><voice>1</voice>
<lyric>
<syllabic>single</syllabic>
<text>are</text>
</lyric>
</note><note default-x="51.11" default-y="-20.00" dynamics="100.00"><pitch><step>B</step><octave>4</octave></pitch><duration>2</duration><voice>1</voice><type>eighth</type><stem>up</stem><beam number="1">end</beam><voice>1</voice>
<lyric>
<syllabic>single</syllabic>
<text>ye</text>
</lyric>
</note><note default-x="70.16" default-y="-15.00" dynamics="100.00"><pitch><step>C</step><alter>1</alter><octave>5</octave></pitch><duration>2</duration><voice>1</voice><type>eighth</type><stem>down</stem><beam number="1">begin</beam><voice>1</voice>
<lyric>
<syllabic>single</syllabic>
<text>singing</text>
</lyric>
</note><note default-x="89.22" default-y="-10.00" dynamics="100.00"><pitch><step>D</step><octave>5</octave></pitch><duration>2</duration><voice>1</voice><type>eighth</type><stem>down</stem><beam number="1">continue</beam><voice>1</voice>
<lyric>
<syllabic>single</syllabic>
<text>now</text>
</lyric>
</note><note default-x="108.27" default-y="-5.00" dynamics="100.00"><pitch><step>E</step><octave>5</octave></pitch><duration>2</duration><voice>1</voice><type>eighth</type><stem>down</stem><beam number="1">end</beam><voice>1</voice>
<lyric>
<syllabic>single</syllabic>
<text>are</text>
</lyric>
</note></measure><measure number="37" width="138.07"><note default-x="13.00" default-y="-10.00" dynamics="100.00"><pitch><step>D</step><octave>5</octave></pitch><duration>2</duration><voice>1</voice><type>eighth</type><stem>up</stem><beam number="1">begin</beam><voice>1</voice>
<lyric>
<syllabic>single</syllabic>
<text>ye</text>
</lyric>
</note><note default-x="32.05" default-y="-20.00" dynamics="100.00"><pitch><step>B</step><octave>4</octave></pitch><duration>2</duration><voice>1</voice><type>eighth</type><stem>up</stem><beam number="1">continue</beam><voice>1</voice>
<lyric>
<syllabic>single</syllabic>
<text>sure</text>
</lyric>
</note><note default-x="51.11" default-y="-40.00" dynamics="100.00"><pitch><step>E</step><octave>4</octave></pitch><duration>2</duration><voice>1</voice><type>eighth</type><stem>up</stem><beam number="1">end</beam><voice>1</voice>
<lyric>
<syllabic>single</syllabic>
<text>its</text>
</lyric>
</note><note default-x="70.16" default-y="-40.00" dynamics="100.00"><pitch><step>E</step><octave>4</octave></pitch><duration>2</duration><voice>1</voice><type>eighth</type><stem>up</stem><beam number="1">begin</beam><voice>1</voice>
<lyric>
<syllabic>single</syllabic>
<text>not</text>
</lyric>
</note><note default-x="89.22" default-y="-20.00" dynamics="100.00"><pitch><step>B</step><octave>4</octave></pitch><duration>2</duration><voice>1</voice><type>eighth</type><stem>up</stem><beam number="1">continue</beam><voice>1</voice>
<lyric>
<syllabic>single</syllabic>
<text>the</text>
</lyric>
</note><note default-x="108.27" default-y="-25.00" dynamics="100.00"><pitch><step>A</step><octave>4</octave></pitch><duration>2</duration><voice>1</voice><type>eighth</type><stem>up</stem><beam number="1">end</beam><voice>1</voice>
<lyric>
<syllabic>single</syllabic>
<text>e</text>
</lyric>
</note></measure><measure number="38" width="120.82"><note default-x="13.00" default-y="-20.00" dynamics="100.00"><pitch><step>B</step><octave>4</octave></pitch><duration>2</duration><voice>1</voice><type>eighth</type><stem>down</stem><beam number="1">begin</beam><voice>1</voice>
<lyric>
<syllabic>single</syllabic>
<text>same</text>
</lyric>
</note><note default-x="31.93" default-y="-10.00" dynamics="100.00"><pitch><step>D</step><octave>5</octave></pitch><duration>2</duration><voice>1</voice><type>eighth</type><stem>down</stem><beam number="1">continue</beam><voice>1</voice>
<lyric>
<syllabic>single</syllabic>
<text>e</text>
</lyric>
</note><note default-x="50.87" default-y="-5.00" dynamics="100.00"><pitch><step>E</step><octave>5</octave></pitch><duration>2</duration><voice>1</voice><type>eighth</type><stem>down</stem><beam number="1">end</beam><voice>1</voice>
<lyric>
<syllabic>single</syllabic>
<text>and</text>
</lyric>
</note><note default-x="69.80" default-y="0.00" dynamics="100.00"><pitch><step>F</step><alter>1</alter><octave>5</octave></pitch><duration>2</duration><voice>1</voice><type>eighth</type><stem>down</stem><voice>1</voice>
<lyric>
<syllabic>single</syllabic>
<text>which</text>
</lyric>
</note><note default-x="88.73" default-y="5.00" dynamics="100.00"><pitch><step>G</step><octave>5</octave></pitch><duration>4</duration><voice>1</voice><type>quarter</type><stem>down</stem><voice>1</voice>
<lyric>
<syllabic>single</syllabic>
<text>one</text>
</lyric>
</note></measure><measure number="39" width="138.07"><note default-x="13.00" default-y="-5.00" dynamics="100.00"><pitch><step>E</step><octave>5</octave></pitch><duration>2</duration><voice>1</voice><type>eighth</type><stem>down</stem><beam number="1">begin</beam><voice>1</voice>
<lyric>
<syllabic>single</syllabic>
<text>are</text>
</lyric>
</note><note default-x="32.05" default-y="0.00" dynamics="100.00"><pitch><step>F</step><alter>1</alter><octave>5</octave></pitch><duration>2</duration><voice>1</voice><type>eighth</type><stem>down</stem><beam number="1">continue</beam><voice>1</voice>
<lyric>
<syllabic>single</syllabic>
<text>ye</text>
</lyric>
</note><note default-x="51.11" default-y="-10.00" dynamics="100.00"><pitch><step>D</step><octave>5</octave></pitch><duration>2</duration><voice>1</voice><type>eighth</type><stem>down</stem><beam number="1">end</beam><voice>1</voice>
<lyric>
<syllabic>single</syllabic>
<text>singing</text>
</lyric>
</note><note default-x="70.16" default-y="-20.00" dynamics="100.00"><pitch><step>B</step><octave>4</octave></pitch><duration>2</duration><voice>1</voice><type>eighth</type><stem>up</stem><beam number="1">begin</beam><voice>1</voice>
<lyric>
<syllabic>single</syllabic>
<text>now</text>
</lyric>
</note><note default-x="89.22" default-y="-25.00" dynamics="100.00"><pitch><step>A</step><octave>4</octave></pitch><duration>2</duration><voice>1</voice><type>eighth</type><stem>up</stem><beam number="1">continue</beam><voice>1</voice>
<lyric>
<syllabic>single</syllabic>
<text>are</text>
</lyric>
</note><note default-x="108.27" default-y="-30.00" dynamics="100.00"><pitch><step>G</step><octave>4</octave></pitch><duration>2</duration><voice>1</voice><type>eighth</type><stem>up</stem><beam number="1">end</beam><voice>1</voice>
<lyric>
<syllabic>single</syllabic>
<text>ye</text>
</lyric>
</note></measure><measure number="40" width="134.12"><note default-x="13.00" default-y="-35.00" dynamics="100.00"><pitch><step>F</step><alter>1</alter><octave>4</octave></pitch><duration>2</duration><voice>1</voice><type>eighth</type><stem>up</stem><beam number="1">begin</beam><voice>1</voice>
<lyric>
<syllabic>single</syllabic>
<text>sure</text>
</lyric>
</note><note default-x="33.17" default-y="-30.00" dynamics="100.00"><pitch><step>G</step><octave>4</octave></pitch><duration>2</duration><voice>1</voice><type>eighth</type><stem>up</stem><beam number="1">continue</beam><voice>1</voice>
<lyric>
<syllabic>single</syllabic>
<text>its</text>
</lyric>
</note><note default-x="53.33" default-y="-40.00" dynamics="100.00"><pitch><step>E</step><octave>4</octave></pitch><duration>2</duration><voice>1</voice><type>eighth</type><stem>up</stem><beam number="1">end</beam><voice>1</voice>
<lyric>
<syllabic>single</syllabic>
<text>not</text>
</lyric>
</note><note default-x="73.50" default-y="-40.00" dynamics="100.00"><pitch><step>E</step><octave>4</octave></pitch><duration>2</duration><voice>1</voice><type>eighth</type><stem>up</stem><voice>1</voice>
<lyric>
<syllabic>single</syllabic>
<text>the</text>
</lyric>
</note><note default-x="100.05" default-y="-40.00" dynamics="100.00"><pitch><step>E</step><octave>4</octave></pitch><duration>4</duration><voice>1</voice><type>quarter</type><stem>up</stem><voice>1</voice>
<lyric>
<syllabic>single</syllabic>
<text>same</text>
</lyric>
</note></measure><measure number="41" width="209.25"><print new-system="yes"><system-layout><system-margins><left-margin>0.00</left-margin><right-margin>0.00</right-margin></system-margins><system-distance>150.00</system-distance></system-layout></print><note default-x="88.35" default-y="-10.00" dynamics="100.00"><pitch><step>D</step><octave>5</octave></pitch><duration>2</duration><voice>1</voice><type>eighth</type><stem>down</stem><beam number="1">begin</beam><voice>1</voice>
<lyric>
<syllabic>single</syllabic>
<text>and</text>
</lyric>
</note><note default-x="106.57" default-y="-5.00" dynamics="100.00"><pitch><step>E</step><octave>5</octave></pitch><duration>2</duration><voice>1</voice><type>eighth</type><stem>down</stem><beam number="1">continue</beam><voice>1</voice>
<lyric>
<syllabic>single</syllabic>
<text>which</text>
</lyric>
</note><note default-x="124.79" default-y="0.00" dynamics="100.00"><pitch><step>F</step><alter>1</alter><octave>5</octave></pitch><duration>2</duration><voice>1</voice><type>eighth</type><stem>down</stem><beam number="1">end</beam><voice>1</voice>
<lyric>
<syllabic>single</syllabic>
<text>one</text>
</lyric>
</note><note default-x="143.01" default-y="-5.00" dynamics="100.00"><pitch><step>E</step><octave>5</octave></pitch><duration>2</duration><voice>1</voice><type>eighth</type><stem>down</stem><beam number="1">begin</beam><voice>1</voice>
<lyric>
<syllabic>single</syllabic>
<text>are</text>
</lyric>
</note><note default-x="161.23" default-y="-5.00" dynamics="100.00"><pitch><step>E</step><octave>5</octave></pitch><duration>2</duration><voice>1</voice><type>eighth</type><stem>down</stem><beam number="1">continue</beam><voice>1</voice>
<lyric>
<syllabic>single</syllabic>
<text>ye</text>
</lyric>
</note><note default-x="179.45" default-y="-10.00" dynamics="100.00"><pitch><step>D</step><octave>5</octave></pitch><duration>2</duration><voice>1</voice><type>eighth</type><stem>down</stem><beam number="1">end</beam><voice>1</voice>
<lyric>
<syllabic>single</syllabic>
<text>singing</text>
</lyric>
</note></measure><measure number="42" width="151.14"><note default-x="13.00" default-y="-20.00" dynamics="100.00"><pitch><step>B</step><octave>4</octave></pitch><duration>2</duration><voice>1</voice><type>eighth</type><stem>down</stem><beam number="1">begin</beam><voice>1</voice>
<lyric>
<syllabic>single</syllabic>
<text>now</text>
</lyric>
</note><note default-x="32.59" default-y="-5.00" dynamics="100.00"><pitch><step>E</step><octave>5</octave></pitch><duration>1</duration><voice>1</voice><type>16th</type><stem>down</stem><beam number="1">continue</beam><beam number="2">begin</beam><voice>1</voice>
<lyric>
<syllabic>single</syllabic>
<text>are</text>
</lyric>
</note><note default-x="47.58" default-y="0.00" dynamics="100.00"><pitch><step>F</step><alter>1</alter><octave>5</octave></pitch><duration>1</duration><voice>1</voice><type>16th</type><stem>down</stem><beam number="1">continue</beam><beam number="2">end</beam><voice>1</voice>
<lyric>
<syllabic>single</syllabic>
<text>ye</text>
</lyric>
</note><note default-x="62.58" default-y="5.00" dynamics="100.00"><pitch><step>G</step><octave>5</octave></pitch><duration>2</duration><voice>1</voice><type>eighth</type><stem>down</stem><beam number="1">end</beam><voice>1</voice>
<lyric>
<syllabic>single</syllabic>
<text>sure</text>
</lyric>
</note><note default-x="82.17" default-y="-5.00" dynamics="100.00"><pitch><step>E</step><octave>5</octave></pitch><duration>2</duration><voice>1</voice><type>eighth</type><stem>down</stem><beam number="1">begin</beam><voice>1</voice>
<lyric>
<syllabic>single</syllabic>
<text>e</text>
</lyric>
</note><note default-x="101.76" default-y="0.00" dynamics="100.00"><pitch><step>F</step><alter>1</alter><octave>5</octave></pitch><duration>2</duration><voice>1</voice><type>eighth</type><stem>down</stem><beam number="1">continue</beam><voice>1</voice>
<lyric>
<syllabic>single</syllabic>
<text>its</text>
</lyric>
</note><note default-x="121.34" default-y="-10.00" dynamics="100.00"><pitch><step>D</step><octave>5</octave></pitch><duration>2</duration><voice>1</voice><type>eighth</type><stem>down</stem><beam number="1">end</beam><voice>1</voice>
<lyric>
<syllabic>single</syllabic>
<text>not</text>
</lyric>
</note></measure><measure number="43" width="133.89"><note default-x="13.00" default-y="-20.00" dynamics="100.00"><pitch><step>B</step><octave>4</octave></pitch><duration>2</duration><voice>1</voice><type>eighth</type><stem>down</stem><beam number="1">begin</beam><voice>1</voice>
<lyric>
<syllabic>single</syllabic>
<text>the</text>
</lyric>
</note><note default-x="31.22" default-y="-10.00" dynamics="100.00"><pitch><step>D</step><octave>5</octave></pitch><duration>2</duration><voice>1</voice><type>eighth</type><stem>down</stem><beam number="1">continue</beam><voice>1</voice>
<lyric>
<syllabic>single</syllabic>
<text>e</text>
</lyric>
</note><note default-x="49.44" default-y="-5.00" dynamics="100.00"><pitch><step>E</step><octave>5</octave></pitch><duration>2</duration><voice>1</voice><type>eighth</type><stem>down</stem><beam number="1">end</beam><voice>1</voice>
<lyric>
<syllabic>single</syllabic>
<text>same</text>
</lyric>
</note><note default-x="67.66" default-y="-15.00" dynamics="100.00"><pitch><step>C</step><alter>1</alter><octave>5</octave></pitch><duration>2</duration><voice>1</voice><type>eighth</type><stem>down</stem><beam number="1">begin</beam><voice>1</voice>
<lyric>
<syllabic>single</syllabic>
<text>e</text>
</lyric>
</note><note default-x="85.88" default-y="-10.00" dynamics="100.00"><pitch><step>D</step><octave>5</octave></pitch><duration>2</duration><voice>1</voice><type>eighth</type><stem>down</stem><beam number="1">continue</beam><voice>1</voice>
<lyric>
<syllabic>single</syllabic>
<text>and</text>
</lyric>
</note><note default-x="104.10" default-y="-25.00" dynamics="100.00"><pitch><step>A</step><octave>4</octave></pitch><duration>2</duration><voice>1</voice><type>eighth</type><stem>down</stem><beam number="1">end</beam><voice>1</voice>
<lyric>
<syllabic>single</syllabic>
<text>which</text>
</lyric>
</note></measure><measure number="44" width="133.89"><note default-x="13.00" default-y="-35.00" dynamics="100.00"><pitch><step>F</step><alter>1</alter><octave>4</octave></pitch><duration>2</duration><voice>1</voice><type>eighth</type><stem>up</stem><beam number="1">begin</beam><voice>1</voice>
<lyric>
<syllabic>single</syllabic>
<text>one</text>
</lyric>
</note><note default-x="31.22" default-y="-45.00" dynamics="100.00"><pitch><step>D</step><octave>4</octave></pitch><duration>2</duration><voice>1</voice><type>eighth</type><stem>up</stem><beam number="1">continue</beam><voice>1</voice>
<lyric>
<syllabic>single</syllabic>
<text>are</text>
</lyric>
</note><note default-x="49.44" default-y="-35.00" dynamics="100.00"><pitch><step>F</step><alter>1</alter><octave>4</octave></pitch><duration>2</duration><voice>1</voice><type>eighth</type><stem>up</stem><beam number="1">end</beam><voice>1</voice>
<lyric>
<syllabic>single</syllabic>
<text>ye</text>
</lyric>
</note><note default-x="67.66" default-y="-25.00" dynamics="100.00"><pitch><step>A</step><octave>4</octave></pitch><duration>2</duration><voice>1</voice><type>eighth</type><stem>down</stem><beam number="1">begin</beam><voice>1</voice>
<lyric>
<syllabic>single</syllabic>
<text>singing</text>
</lyric>
</note><note default-x="85.88" default-y="-10.00" dynamics="100.00"><pitch><step>D</step><octave>5</octave></pitch><duration>2</duration><voice>1</voice><type>eighth</type><stem>down</stem><beam number="1">continue</beam><voice>1</voice>
<lyric>
<syllabic>single</syllabic>
<text>now</text>
</lyric>
</note><note default-x="104.10" default-y="-5.00" dynamics="100.00"><pitch><step>E</step><octave>5</octave></pitch><duration>2</duration><voice>1</voice><type>eighth</type><stem>down</stem><beam number="1">end</beam><voice>1</voice>
<lyric>
<syllabic>single</syllabic>
<text>are</text>
</lyric>
</note></measure><measure number="45" width="133.89"><note default-x="13.00" default-y="0.00" dynamics="100.00"><pitch><step>F</step><alter>1</alter><octave>5</octave></pitch><duration>2</duration><voice>1</voice><type>eighth</type><stem>down</stem><beam number="1">begin</beam><voice>1</voice>
<lyric>
<syllabic>single</syllabic>
<text>ye</text>
</lyric>
</note><note default-x="31.22" default-y="-5.00" dynamics="100.00"><pitch><step>E</step><octave>5</octave></pitch><duration>2</duration><voice>1</voice><type>eighth</type><stem>down</stem><beam number="1">continue</beam><voice>1</voice>
<lyric>
<syllabic>single</syllabic>
<text>sure</text>
</lyric>
</note><note default-x="49.44" default-y="-10.00" dynamics="100.00"><pitch><step>D</step><octave>5</octave></pitch><duration>2</duration><voice>1</voice><type>eighth</type><stem>down</stem><beam number="1">end</beam><voice>1</voice>
<lyric>
<syllabic>single</syllabic>
<text>its</text>
</lyric>
</note><note default-x="67.66" default-y="-20.00" dynamics="100.00"><pitch><step>B</step><octave>4</octave></pitch><duration>2</duration><voice>1</voice><type>eighth</type><stem>down</stem><beam number="1">begin</beam><voice>1</voice>
<lyric>
<syllabic>single</syllabic>
<text>not</text>
</lyric>
</note><note default-x="85.88" default-y="-10.00" dynamics="100.00"><pitch><step>D</step><octave>5</octave></pitch><duration>2</duration><voice>1</voice><type>eighth</type><stem>down</stem><beam number="1">continue</beam><voice>1</voice>
<lyric>
<syllabic>single</syllabic>
<text>the</text>
</lyric>
</note><note default-x="104.10" default-y="-5.00" dynamics="100.00"><pitch><step>E</step><octave>5</octave></pitch><duration>2</duration><voice>1</voice><type>eighth</type><stem>down</stem><beam number="1">end</beam><voice>1</voice>
<lyric>
<syllabic>single</syllabic>
<text>e</text>
</lyric>
</note></measure><measure number="46" width="132.75"><note default-x="13.00" default-y="0.00" dynamics="100.00"><pitch><step>F</step><alter>1</alter><octave>5</octave></pitch><duration>2</duration><voice>1</voice><type>eighth</type><stem>down</stem><beam number="1">begin</beam><voice>1</voice>
<lyric>
<syllabic>single</syllabic>
<text>same</text>
</lyric>
</note><note default-x="33.86" default-y="5.00" dynamics="100.00"><pitch><step>G</step><octave>5</octave></pitch><duration>2</duration><voice>1</voice><type>eighth</type><stem>down</stem><beam number="1">continue</beam><voice>1</voice>
<lyric>
<syllabic>single</syllabic>
<text>e</text>
</lyric>
</note><note default-x="54.72" default-y="15.00" dynamics="100.00"><pitch><step>B</step><octave>5</octave></pitch><duration>2</duration><voice>1</voice><type>eighth</type><stem>down</stem><beam number="1">end</beam><voice>1</voice>
<lyric>
<syllabic>single</syllabic>
<text>and</text>
</lyric>
</note><note default-x="76.71" default-y="10.00" dynamics="100.00"><pitch><step>A</step><octave>5</octave></pitch><duration>2</duration><voice>1</voice><type>eighth</type><stem>down</stem><voice>1</voice>
<lyric>
<syllabic>single</syllabic>
<text>which</text>
</lyric>
</note><note default-x="97.57" default-y="5.00" dynamics="100.00"><pitch><step>G</step><octave>5</octave></pitch><duration>4</duration><voice>1</voice><type>quarter</type><stem>down</stem><voice>1</voice>
<lyric>
<syllabic>single</syllabic>
<text>one</text>
</lyric>
</note></measure><measure number="47" width="133.89"><note default-x="13.00" default-y="-5.00" dynamics="100.00"><pitch><step>E</step><octave>5</octave></pitch><duration>2</duration><voice>1</voice><type>eighth</type><stem>down</stem><beam number="1">begin</beam><voice>1</voice>
<lyric>
<syllabic>single</syllabic>
<text>are</text>
</lyric>
</note><note default-x="31.22" default-y="0.00" dynamics="100.00"><pitch><step>F</step><alter>1</alter><octave>5</octave></pitch><duration>2</duration><voice>1</voice><type>eighth</type><stem>down</stem><beam number="1">continue</beam><voice>1</voice>
<lyric>
<syllabic>single</syllabic>
<text>ye</text>
</lyric>
</note><note default-x="49.44" default-y="-10.00" dynamics="100.00"><pitch><step>D</step><octave>5</octave></pitch><duration>2</duration><voice>1</voice><type>eighth</type><stem>down</stem><beam number="1">end</beam><voice>1</voice>
<lyric>
<syllabic>single</syllabic>
<text>singing</text>
</lyric>
</note><note default-x="67.66" default-y="-20.00" dynamics="100.00"><pitch><step>B</step><octave>4</octave></pitch><duration>2</duration><voice>1</voice><type>eighth</type><stem>up</stem><beam number="1">begin</beam><voice>1</voice>
<lyric>
<syllabic>single</syllabic>
<text>now</text>
</lyric>
</note><note default-x="85.88" default-y="-25.00" dynamics="100.00"><pitch><step>A</step><octave>4</octave></pitch><duration>2</duration><voice>1</voice><type>eighth</type><stem>up</stem><beam number="1">continue</beam><voice>1</voice>
<lyric>
<syllabic>single</syllabic>
<text>are</text>
</lyric>
</note><note default-x="104.10" default-y="-30.00" dynamics="100.00"><pitch><step>G</step><octave>4</octave></pitch><duration>2</duration><voice>1</voice><type>eighth</type><stem>up</stem><beam number="1">end</beam><voice>1</voice>
<lyric>
<syllabic>single</syllabic>
<text>ye</text>
</lyric>
</note></measure><measure number="48" width="426.96"><print new-system="yes"><system-layout><system-margins><left-margin>0.00</left-margin><right-margin>601.75</right-margin></system-margins><system-distance>150.00</system-distance></system-layout></print><note default-x="88.35" default-y="-35.00" dynamics="100.00"><pitch><step>F</step><alter>1</alter><octave>4</octave></pitch><duration>2</duration><voice>1</voice><type>eighth</type><stem>up</stem><beam number="1">begin</beam><voice>1</voice>
<lyric>
<syllabic>single</syllabic>
<text>sure</text>
</lyric>
</note><note default-x="146.92" default-y="-30.00" dynamics="100.00"><pitch><step>G</step><octave>4</octave></pitch><duration>2</duration><voice>1</voice><type>eighth</type><stem>up</stem><beam number="1">continue</beam><voice>1</voice>
<lyric>
<syllabic>single</syllabic>
<text>its</text>
</lyric>
</note><note default-x="205.48" default-y="-40.00" dynamics="100.00"><pitch><step>E</step><octave>4</octave></pitch><duration>2</duration><voice>1</voice><type>eighth</type><stem>up</stem><beam number="1">end</beam><voice>1</voice>
<lyric>
<syllabic>single</syllabic>
<text>not</text>
</lyric>
</note><note default-x="264.04" default-y="-40.00" dynamics="100.00"><pitch><step>E</step><octave>4</octave></pitch><duration>2</duration><voice>1</voice><type>eighth</type><stem>up</stem><voice>1</voice>
<lyric>
<syllabic>single</syllabic>
<text>the</text>
</lyric>
</note><note default-x="322.61" default-y="-40.00" dynamics="100.00"><pitch><step>E</step><octave>4</octave></pitch><duration>4</duration><voice>1</voice><type>quarter</type><stem>up</stem><voice>1</voice>
<lyric>
<syllabic>single</syllabic>
<text>same</text>
</lyric>
</note><barline location="right"><bar-style>light-heavy</bar-style></barline></measure></part></score-partwise>